<svg xmlns="http://www.w3.org/2000/svg" xmlns:xlink="http://www.w3.org/1999/xlink" viewBox="0 0 117.97 29.97" fill="#fff" fill-rule="evenodd" stroke="#000" stroke-linecap="round" stroke-linejoin="round"><use xlink:href="#A" x="6.485" y="6.485"/><symbol id="A" overflow="visible"><path d="M9.607 15.145c-.438 1.148-.901 1.855-2.418 1.855s-1.98-.707-2.415-1.855L.278 3.623C.063 3.065 0 2.728 0 2.323 0 .893 1.115.156 2.325.156c1.239 0 1.77.893 1.982 1.574l2.85 8.796h.063l2.849-8.796c.219-.681.744-1.574 1.983-1.574h4.387c1.134 0 1.88.617 2.034 1.7C19.567.677 21.001 0 22.66 0c1.869 0 3.44.773 4.616 2.256C28.51.831 30.481 0 32.01 0c3.637 0 6.108 2.104 6.108 5.991v8.537c0 1.48-.929 2.471-2.224 2.471-1.301 0-2.224-.99-2.224-2.471V6.77c0-1.793-1.003-3.062-2.629-3.062-1.651 0-2.652 1.27-2.652 3.062v7.759c0 1.48-.933 2.471-2.224 2.471-1.301 0-2.221-.99-2.221-2.471V6.77c0-1.793-1.006-3.062-2.631-3.062-1.839 0-2.655 1.27-2.655 3.062v7.759c0 1.48-.926 2.471-2.22 2.471-1.3 0-2.225-.99-2.225-2.471V3.434L9.607 15.145zM39.646 2.414c-.122-.405-.22-.77-.22-1.05 0-.53.376-1.209 1.307-1.209.588 0 1.144.213 1.52 1.396l3.503 11.254h.062l3.441-10.852c.376-1.179.618-1.797 1.618-1.797.989 0 1.239.619 1.609 1.797l3.445 10.852h.063l3.5-11.254C59.869.368 60.427.155 61.01.155c.934 0 1.302.678 1.302 1.208 0 .277-.093.645-.217 1.049l-4.524 13.162c-.369 1.051-.804 1.424-1.579 1.424-.748 0-1.209-.373-1.545-1.424L50.909 4.454h-.062l-3.536 11.121c-.34 1.051-.801 1.424-1.545 1.424-.778 0-1.209-.373-1.585-1.424l-4.536-13.16zm26.541 6.163c0-2.803 1.18-6.09 4.533-6.09s4.535 3.286 4.535 6.09c0 2.794-1.182 6.087-4.535 6.087s-4.533-3.292-4.533-6.087zm11.64-7.109c0-.946-.748-1.312-1.274-1.312a1.23 1.23 0 0 0-1.265 1.313v.864h-.067C73.951.947 72.616.155 70.72.155c-4.659 0-7.265 4.04-7.265 8.422s2.606 8.422 7.265 8.422c1.773 0 3.32-.798 4.501-2.46h.067v1.14c0 .953.705 1.32 1.265 1.32.526 0 1.274-.366 1.274-1.32V1.468zm3.591.142c0-.896.524-1.45 1.359-1.45s1.371.554 1.371 1.45v1.398h.063C84.829 1.734 86.352.16 87.933.16c.955 0 1.519.617 1.519 1.39s-.563 1.267-1.709 1.485c-1.614.277-3.594 1.485-3.594 4.672v7.836c0 .897-.534 1.454-1.371 1.454s-1.359-.558-1.359-1.454V1.61zm11.509 5.985c.091-2.523 1.296-5.231 4.682-5.107 3.013 0 4.377 2.739 4.377 5.107h-9.059zm10.27 2.041c1.175 0 1.52-.498 1.52-1.451 0-3.99-2.606-8.029-7.109-8.029-4.625 0-7.418 3.947-7.418 8.429 0 4.376 2.3 8.415 7.575 8.415 3.226 0 6.608-2.024 6.608-3.355 0-.78-.49-1.211-.991-1.211-1.023 0-1.955 2.231-5.59 2.231-3.065 0-4.864-2.202-4.864-5.028h10.269 0z" stroke="none" fill="#696566"/></symbol></svg>